{
	"asset":{
		"generator":"Khronos glTF Blender I/O v4.2.60",
		"version":"2.0"
	},
	"scene":0,
	"scenes":[
		{
			"name":"Scene",
			"nodes":[
				0,
				1
			]
		}
	],
	"nodes":[
		{
			"mesh":0,
			"name":"Cube"
		},
		{
			"mesh":1,
			"name":"Cube.002"
		}
	],
	"materials":[
		{
			"doubleSided":true,
			"name":"Material",
			"pbrMetallicRoughness":{
				"baseColorFactor":[
					0.06827456504106522,
					0.06827456504106522,
					0.06827456504106522,
					1
				],
				"metallicFactor":0,
				"roughnessFactor":0.5
			}
		},
		{
			"doubleSided":true,
			"name":"Material.001",
			"pbrMetallicRoughness":{
				"baseColorFactor":[
					0.8002121448516846,
					0.14378595352172852,
					0.0714496597647667,
					1
				],
				"metallicFactor":0,
				"roughnessFactor":0.5
			}
		}
	],
	"meshes":[
		{
			"name":"Cube.001",
			"primitives":[
				{
					"attributes":{
						"POSITION":0,
						"NORMAL":1,
						"TEXCOORD_0":2
					},
					"indices":3,
					"material":0
				},
				{
					"attributes":{
						"POSITION":4,
						"NORMAL":5,
						"TEXCOORD_0":6
					},
					"indices":7,
					"material":1
				}
			]
		},
		{
			"name":"Cube.003",
			"primitives":[
				{
					"attributes":{
						"POSITION":8,
						"NORMAL":9,
						"TEXCOORD_0":10
					},
					"indices":11,
					"material":0
				}
			]
		}
	],
	"accessors":[
		{
			"bufferView":0,
			"componentType":5126,
			"count":2239,
			"max":[
				2.353757381439209,
				0.7132009863853455,
				0.14402887225151062
			],
			"min":[
				-2.4046108722686768,
				-0.19642066955566406,
				-0.14402887225151062
			],
			"type":"VEC3"
		},
		{
			"bufferView":1,
			"componentType":5126,
			"count":2239,
			"type":"VEC3"
		},
		{
			"bufferView":2,
			"componentType":5126,
			"count":2239,
			"type":"VEC2"
		},
		{
			"bufferView":3,
			"componentType":5123,
			"count":4008,
			"type":"SCALAR"
		},
		{
			"bufferView":4,
			"componentType":5126,
			"count":324,
			"max":[
				1.1304771900177002,
				0.7067582011222839,
				0.14402887225151062
			],
			"min":[
				-2.376465320587158,
				-0.3329015374183655,
				-0.14402887225151062
			],
			"type":"VEC3"
		},
		{
			"bufferView":5,
			"componentType":5126,
			"count":324,
			"type":"VEC3"
		},
		{
			"bufferView":6,
			"componentType":5126,
			"count":324,
			"type":"VEC2"
		},
		{
			"bufferView":7,
			"componentType":5123,
			"count":684,
			"type":"SCALAR"
		},
		{
			"bufferView":8,
			"componentType":5126,
			"count":304,
			"max":[
				0.45647045969963074,
				0.299654483795166,
				0.09137635678052902
			],
			"min":[
				-0.27729830145835876,
				-0.5672529339790344,
				-0.09137635678052902
			],
			"type":"VEC3"
		},
		{
			"bufferView":9,
			"componentType":5126,
			"count":304,
			"type":"VEC3"
		},
		{
			"bufferView":10,
			"componentType":5126,
			"count":304,
			"type":"VEC2"
		},
		{
			"bufferView":11,
			"componentType":5123,
			"count":456,
			"type":"SCALAR"
		}
	],
	"bufferViews":[
		{
			"buffer":0,
			"byteLength":26868,
			"byteOffset":0,
			"target":34962
		},
		{
			"buffer":0,
			"byteLength":26868,
			"byteOffset":26868,
			"target":34962
		},
		{
			"buffer":0,
			"byteLength":17912,
			"byteOffset":53736,
			"target":34962
		},
		{
			"buffer":0,
			"byteLength":8016,
			"byteOffset":71648,
			"target":34963
		},
		{
			"buffer":0,
			"byteLength":3888,
			"byteOffset":79664,
			"target":34962
		},
		{
			"buffer":0,
			"byteLength":3888,
			"byteOffset":83552,
			"target":34962
		},
		{
			"buffer":0,
			"byteLength":2592,
			"byteOffset":87440,
			"target":34962
		},
		{
			"buffer":0,
			"byteLength":1368,
			"byteOffset":90032,
			"target":34963
		},
		{
			"buffer":0,
			"byteLength":3648,
			"byteOffset":91400,
			"target":34962
		},
		{
			"buffer":0,
			"byteLength":3648,
			"byteOffset":95048,
			"target":34962
		},
		{
			"buffer":0,
			"byteLength":2432,
			"byteOffset":98696,
			"target":34962
		},
		{
			"buffer":0,
			"byteLength":912,
			"byteOffset":101128,
			"target":34963
		}
	],
	"buffers":[
		{
			"byteLength":102040,
			"uri":"Ak.bin"
		}
	]
}
