{
	"asset":{
		"generator":"Khronos glTF Blender I/O v4.2.60",
		"version":"2.0"
	},
	"extensionsUsed":[
		"KHR_materials_emissive_strength",
		"KHR_materials_specular",
		"KHR_materials_ior"
	],
	"scene":0,
	"scenes":[
		{
			"name":"Scene",
			"nodes":[
				0,
				1,
				2
			]
		}
	],
	"nodes":[
		{
			"mesh":0,
			"name":"Cube",
			"scale":[
				0.11078289151191711,
				0.11078289151191711,
				0.11078289151191711
			],
			"translation":[
				-0.17489606142044067,
				0.22156965732574463,
				0
			]
		},
		{
			"name":"Empty",
			"rotation":[
				0.7071068286895752,
				0,
				0,
				0.7071068286895752
			],
			"translation":[
				0,
				0,
				-4
			]
		},
		{
			"mesh":1,
			"name":"Cube.001",
			"scale":[
				0.11078289151191711,
				0.11078289151191711,
				0.11078289151191711
			],
			"translation":[
				0.515779435634613,
				0.27929389476776123,
				0
			]
		}
	],
	"materials":[
		{
			"name":"Base",
			"pbrMetallicRoughness":{
				"baseColorTexture":{
					"index":0
				},
				"metallicFactor":0.05069360136985779,
				"roughnessFactor":0.8290037512779236
			}
		},
		{
			"name":"Material",
			"pbrMetallicRoughness":{
				"baseColorFactor":[
					0.8000000715255737,
					0.39436081051826477,
					0,
					1
				],
				"metallicFactor":0.7704917788505554,
				"roughnessFactor":0.4508196711540222
			}
		},
		{
			"doubleSided":true,
			"emissiveFactor":[
				0,
				1,
				0.08905503153800964
			],
			"extensions":{
				"KHR_materials_emissive_strength":{
					"emissiveStrength":5
				}
			},
			"name":"Mira",
			"pbrMetallicRoughness":{
				"baseColorFactor":[
					0,
					0,
					0,
					1
				]
			}
		},
		{
			"extensions":{
				"KHR_materials_specular":{
					"specularFactor":0.6065573692321777
				},
				"KHR_materials_ior":{
					"ior":1.4500000476837158
				}
			},
			"name":"Ferro",
			"pbrMetallicRoughness":{
				"baseColorFactor":[
					0.001091585960239172,
					0.001091585960239172,
					0.001091585960239172,
					1
				],
				"metallicFactor":0.04186636209487915
			}
		}
	],
	"meshes":[
		{
			"name":"Cube",
			"primitives":[
				{
					"attributes":{
						"POSITION":0,
						"NORMAL":1,
						"TEXCOORD_0":2
					},
					"indices":3,
					"material":0
				},
				{
					"attributes":{
						"POSITION":4,
						"NORMAL":5,
						"TEXCOORD_0":6
					},
					"indices":7,
					"material":1
				},
				{
					"attributes":{
						"POSITION":8,
						"NORMAL":9,
						"TEXCOORD_0":10
					},
					"indices":11,
					"material":2
				},
				{
					"attributes":{
						"POSITION":12,
						"NORMAL":13,
						"TEXCOORD_0":14
					},
					"indices":15,
					"material":3
				}
			]
		},
		{
			"name":"Cube.001",
			"primitives":[
				{
					"attributes":{
						"POSITION":16,
						"NORMAL":17,
						"TEXCOORD_0":18
					},
					"indices":19,
					"material":0
				},
				{
					"attributes":{
						"POSITION":20,
						"NORMAL":21,
						"TEXCOORD_0":22
					},
					"indices":23,
					"material":1
				},
				{
					"attributes":{
						"POSITION":24,
						"NORMAL":25,
						"TEXCOORD_0":26
					},
					"indices":27,
					"material":3
				}
			]
		}
	],
	"textures":[
		{
			"sampler":0,
			"source":0
		}
	],
	"images":[
		{
			"mimeType":"image/png",
			"name":"Base Base Color",
			"uri":"Base%20Base%20Color.png"
		}
	],
	"accessors":[
		{
			"bufferView":0,
			"componentType":5126,
			"count":509,
			"max":[
				10.13007640838623,
				1.0000001192092896,
				1.1468528509140015
			],
			"min":[
				-1.190753698348999,
				-4.209504127502441,
				-1.1468528509140015
			],
			"type":"VEC3"
		},
		{
			"bufferView":1,
			"componentType":5126,
			"count":509,
			"type":"VEC3"
		},
		{
			"bufferView":2,
			"componentType":5126,
			"count":509,
			"type":"VEC2"
		},
		{
			"bufferView":3,
			"componentType":5123,
			"count":1584,
			"type":"SCALAR"
		},
		{
			"bufferView":4,
			"componentType":5126,
			"count":437,
			"max":[
				10.130075454711914,
				0.14061929285526276,
				1.1474732160568237
			],
			"min":[
				1.7555718421936035,
				-3.1789023876190186,
				-1.1474732160568237
			],
			"type":"VEC3"
		},
		{
			"bufferView":5,
			"componentType":5126,
			"count":437,
			"type":"VEC3"
		},
		{
			"bufferView":6,
			"componentType":5126,
			"count":437,
			"type":"VEC2"
		},
		{
			"bufferView":7,
			"componentType":5123,
			"count":1260,
			"type":"SCALAR"
		},
		{
			"bufferView":8,
			"componentType":5126,
			"count":70,
			"max":[
				-0.033575642853975296,
				1.4087235927581787,
				0.14691825211048126
			],
			"min":[
				-0.242523655295372,
				1.256776213645935,
				-0.14691826701164246
			],
			"type":"VEC3"
		},
		{
			"bufferView":9,
			"componentType":5126,
			"count":70,
			"type":"VEC3"
		},
		{
			"bufferView":10,
			"componentType":5126,
			"count":70,
			"type":"VEC2"
		},
		{
			"bufferView":11,
			"componentType":5123,
			"count":192,
			"type":"SCALAR"
		},
		{
			"bufferView":12,
			"componentType":5126,
			"count":3332,
			"max":[
				10.862587928771973,
				1.2825535535812378,
				1.3630025386810303
			],
			"min":[
				-2.4749855995178223,
				-7.094217300415039,
				-1.3630026578903198
			],
			"type":"VEC3"
		},
		{
			"bufferView":13,
			"componentType":5126,
			"count":3332,
			"type":"VEC3"
		},
		{
			"bufferView":14,
			"componentType":5126,
			"count":3332,
			"type":"VEC2"
		},
		{
			"bufferView":15,
			"componentType":5123,
			"count":10404,
			"type":"SCALAR"
		},
		{
			"bufferView":16,
			"componentType":5126,
			"count":256,
			"max":[
				3.895580291748047,
				0.41457414627075195,
				1.0382226705551147
			],
			"min":[
				-3.3315486907958984,
				-0.4410127103328705,
				-1.0382226705551147
			],
			"type":"VEC3"
		},
		{
			"bufferView":17,
			"componentType":5126,
			"count":256,
			"type":"VEC3"
		},
		{
			"bufferView":18,
			"componentType":5126,
			"count":256,
			"type":"VEC2"
		},
		{
			"bufferView":19,
			"componentType":5123,
			"count":696,
			"type":"SCALAR"
		},
		{
			"bufferView":20,
			"componentType":5126,
			"count":206,
			"max":[
				-1.3183388710021973,
				0.5285757184028625,
				1.2546192407608032
			],
			"min":[
				-2.357989549636841,
				0.013136625289916992,
				-1.2546192407608032
			],
			"type":"VEC3"
		},
		{
			"bufferView":21,
			"componentType":5126,
			"count":206,
			"type":"VEC3"
		},
		{
			"bufferView":22,
			"componentType":5126,
			"count":206,
			"type":"VEC2"
		},
		{
			"bufferView":23,
			"componentType":5123,
			"count":672,
			"type":"SCALAR"
		},
		{
			"bufferView":24,
			"componentType":5126,
			"count":1688,
			"max":[
				3.895580291748047,
				0.5574744343757629,
				1.2907158136367798
			],
			"min":[
				-3.5262670516967773,
				-0.6125558614730835,
				-1.2907158136367798
			],
			"type":"VEC3"
		},
		{
			"bufferView":25,
			"componentType":5126,
			"count":1688,
			"type":"VEC3"
		},
		{
			"bufferView":26,
			"componentType":5126,
			"count":1688,
			"type":"VEC2"
		},
		{
			"bufferView":27,
			"componentType":5123,
			"count":5148,
			"type":"SCALAR"
		}
	],
	"bufferViews":[
		{
			"buffer":0,
			"byteLength":6108,
			"byteOffset":0,
			"target":34962
		},
		{
			"buffer":0,
			"byteLength":6108,
			"byteOffset":6108,
			"target":34962
		},
		{
			"buffer":0,
			"byteLength":4072,
			"byteOffset":12216,
			"target":34962
		},
		{
			"buffer":0,
			"byteLength":3168,
			"byteOffset":16288,
			"target":34963
		},
		{
			"buffer":0,
			"byteLength":5244,
			"byteOffset":19456,
			"target":34962
		},
		{
			"buffer":0,
			"byteLength":5244,
			"byteOffset":24700,
			"target":34962
		},
		{
			"buffer":0,
			"byteLength":3496,
			"byteOffset":29944,
			"target":34962
		},
		{
			"buffer":0,
			"byteLength":2520,
			"byteOffset":33440,
			"target":34963
		},
		{
			"buffer":0,
			"byteLength":840,
			"byteOffset":35960,
			"target":34962
		},
		{
			"buffer":0,
			"byteLength":840,
			"byteOffset":36800,
			"target":34962
		},
		{
			"buffer":0,
			"byteLength":560,
			"byteOffset":37640,
			"target":34962
		},
		{
			"buffer":0,
			"byteLength":384,
			"byteOffset":38200,
			"target":34963
		},
		{
			"buffer":0,
			"byteLength":39984,
			"byteOffset":38584,
			"target":34962
		},
		{
			"buffer":0,
			"byteLength":39984,
			"byteOffset":78568,
			"target":34962
		},
		{
			"buffer":0,
			"byteLength":26656,
			"byteOffset":118552,
			"target":34962
		},
		{
			"buffer":0,
			"byteLength":20808,
			"byteOffset":145208,
			"target":34963
		},
		{
			"buffer":0,
			"byteLength":3072,
			"byteOffset":166016,
			"target":34962
		},
		{
			"buffer":0,
			"byteLength":3072,
			"byteOffset":169088,
			"target":34962
		},
		{
			"buffer":0,
			"byteLength":2048,
			"byteOffset":172160,
			"target":34962
		},
		{
			"buffer":0,
			"byteLength":1392,
			"byteOffset":174208,
			"target":34963
		},
		{
			"buffer":0,
			"byteLength":2472,
			"byteOffset":175600,
			"target":34962
		},
		{
			"buffer":0,
			"byteLength":2472,
			"byteOffset":178072,
			"target":34962
		},
		{
			"buffer":0,
			"byteLength":1648,
			"byteOffset":180544,
			"target":34962
		},
		{
			"buffer":0,
			"byteLength":1344,
			"byteOffset":182192,
			"target":34963
		},
		{
			"buffer":0,
			"byteLength":20256,
			"byteOffset":183536,
			"target":34962
		},
		{
			"buffer":0,
			"byteLength":20256,
			"byteOffset":203792,
			"target":34962
		},
		{
			"buffer":0,
			"byteLength":13504,
			"byteOffset":224048,
			"target":34962
		},
		{
			"buffer":0,
			"byteLength":10296,
			"byteOffset":237552,
			"target":34963
		}
	],
	"samplers":[
		{
			"magFilter":9729,
			"minFilter":9987
		}
	],
	"buffers":[
		{
			"byteLength":247848,
			"uri":"Glock_futurista.bin"
		}
	]
}
